<?xml version="1.0" encoding="utf-8"?>
<!-- Generator: Adobe Illustrator 24.1.1, SVG Export Plug-In . SVG Version: 6.00 Build 0)  -->
<svg version="1.1" id="flaggyLogo" xmlns="http://www.w3.org/2000/svg" xmlns:xlink="http://www.w3.org/1999/xlink" x="0px" y="0px"
	 viewBox="0 0 105.63 146.86" style="enable-background:new 0 0 105.63 146.86;" xml:space="preserve">
<style type="text/css">
	.st0{fill:none;stroke:#221714;stroke-miterlimit:10;}
	.st1{fill:#5CB292;}
	.st2{fill:#7DC1A8;}
	.st3{fill:#97CDB9;}
	.st4{fill:none;}
</style>
<line class="st0" x1="240.59" y1="276.02" x2="240.59" y2="274.95"/>
<polygon class="st1" points="14.97,16.81 14.97,59.58 0,59.58 0,0 "/>
<path class="st1" d="M14.97,77.16v68.42c0-0.71-3.35-1.28-7.49-1.28c-4.13,0-7.48,0.57-7.48,1.28v-86L14.97,77.16z"/>
<polygon class="st2" points="105.63,77.16 14.97,77.16 0,59.58 86.81,59.58 "/>
<polygon class="st2" points="105.63,0 87.27,16.81 14.97,16.81 0,0 "/>
<polygon class="st3" points="105.63,59.58 105.63,77.16 86.81,59.58 74.7,48.26 63.92,38.19 74.8,28.22 84.77,38.19 "/>
<polygon class="st3" points="105.63,0 105.63,16.81 84.77,38.19 74.8,28.22 87.27,16.81 "/>
<path class="st1" d="M14.97,145.58c0,0.71-3.35,1.28-7.49,1.28c-4.13,0-7.48-0.57-7.48-1.28c0-0.71,3.35-1.28,7.48-1.28
	C11.62,144.3,14.97,144.87,14.97,145.58z"/>
<line class="st4" x1="187.01" y1="22.83" x2="186.53" y2="22.83"/>
<line class="st4" x1="74.8" y1="28.22" x2="74.75" y2="28.17"/>
<line class="st4" x1="74.7" y1="48.26" x2="74.66" y2="48.3"/>
</svg>
