<?xml version="1.0" encoding="utf-8"?>
<!-- Generator: Adobe Illustrator 24.1.1, SVG Export Plug-In . SVG Version: 6.00 Build 0)  -->
<svg version="1.1" id="圖層_1" xmlns="http://www.w3.org/2000/svg" xmlns:xlink="http://www.w3.org/1999/xlink" x="0px" y="0px"
	 viewBox="0 0 416 416" style="enable-background:new 0 0 416 416;" xml:space="preserve">
<style type="text/css">
	.st0{fill:#FFFFFF;}
</style>
<g>
	<circle cx="208" cy="208" r="207.5"/>
	<path d="M208,1c27.95,0,55.05,5.47,80.57,16.27c24.65,10.43,46.79,25.35,65.8,44.36c19.01,19.01,33.94,41.15,44.36,65.8
		C409.53,152.95,415,180.05,415,208s-5.47,55.05-16.27,80.57c-10.43,24.65-25.35,46.79-44.36,65.8
		c-19.01,19.01-41.15,33.94-65.8,44.36C263.05,409.53,235.95,415,208,415s-55.05-5.47-80.57-16.27
		c-24.65-10.43-46.79-25.35-65.8-44.36c-19.01-19.01-33.94-41.15-44.36-65.8C6.47,263.05,1,235.95,1,208s5.47-55.05,16.27-80.57
		c10.43-24.65,25.35-46.79,44.36-65.8c19.01-19.01,41.15-33.94,65.8-44.36C152.95,6.47,180.05,1,208,1 M208,0C93.12,0,0,93.12,0,208
		s93.12,208,208,208s208-93.12,208-208S322.88,0,208,0L208,0z"/>
</g>
<g>
	<path class="st0" d="M233,314c0,15.95-11.48,29-25.5,29S182,329.95,182,314V102c0-15.95,11.48-29,25.5-29S233,86.05,233,102V314z"
		/>
</g>
<g>
	<path class="st0" d="M102,234c-15.95,0-29-11.48-29-25.5S86.05,183,102,183h212c15.95,0,29,11.48,29,25.5S329.95,234,314,234H102z"
		/>
</g>
</svg>
