<?xml version="1.0" encoding="utf-8"?>
<!-- Generator: Adobe Illustrator 24.1.1, SVG Export Plug-In . SVG Version: 6.00 Build 0)  -->
<svg version="1.1" xmlns="http://www.w3.org/2000/svg" xmlns:xlink="http://www.w3.org/1999/xlink" x="0px" y="0px"
	 viewBox="0 0 561 561" style="enable-background:new 0 0 561 561;" xml:space="preserve">
<style type="text/css">
	.st0{fill:#FFFFFF;}
</style>
<g>
	<path d="M280.5,560.5c-74.79,0-145.1-29.13-197.99-82.01C29.63,425.6,0.5,355.29,0.5,280.5S29.63,135.4,82.51,82.51
		C135.4,29.63,205.71,0.5,280.5,0.5s145.1,29.13,197.99,82.01c52.88,52.88,82.01,123.2,82.01,197.99s-29.13,145.1-82.01,197.99
		C425.6,531.38,355.29,560.5,280.5,560.5z"/>
	<path d="M280.5,1c37.73,0,74.34,7.39,108.79,21.96c33.28,14.08,63.17,34.23,88.84,59.9c25.67,25.67,45.82,55.56,59.9,88.84
		C552.61,206.16,560,242.77,560,280.5s-7.39,74.34-21.96,108.79c-14.08,33.28-34.23,63.17-59.9,88.84
		c-25.67,25.67-55.56,45.82-88.84,59.9C354.84,552.61,318.23,560,280.5,560s-74.34-7.39-108.79-21.96
		c-33.28-14.08-63.17-34.23-88.84-59.9c-25.67-25.67-45.82-55.56-59.9-88.84C8.39,354.84,1,318.23,1,280.5s7.39-74.34,21.96-108.79
		c14.08-33.28,34.23-63.17,59.9-88.84c25.67-25.67,55.56-45.82,88.84-59.9C206.16,8.39,242.77,1,280.5,1 M280.5,0
		C125.58,0,0,125.58,0,280.5S125.58,561,280.5,561S561,435.42,561,280.5S435.42,0,280.5,0L280.5,0z"/>
</g>
<g>
	<path class="st0" d="M171.37,425.7c-12.83,12.83-31.45,15.22-41.37,5.3s-7.53-28.53,5.3-41.37L395.63,129.3
		c12.83-12.83,31.45-15.22,41.37-5.3s7.53,28.53-5.3,41.37L171.37,425.7z"/>
</g>
<g>
	<path class="st0" d="M141.48,157.05c-12.08-13.55-13.39-32.27-2.92-41.6c10.47-9.33,28.92-5.88,40.99,7.67l244.97,274.83
		c12.08,13.55,13.39,32.27,2.92,41.6c-10.47,9.33-28.92,5.88-40.99-7.67L141.48,157.05z"/>
</g>
</svg>
