<?xml version="1.0" encoding="utf-8"?>
<!-- Generator: Adobe Illustrator 24.1.1, SVG Export Plug-In . SVG Version: 6.00 Build 0)  -->
<svg version="1.1" id="flaggyLogo" xmlns="http://www.w3.org/2000/svg" xmlns:xlink="http://www.w3.org/1999/xlink" x="0px" y="0px"
	 viewBox="0 0 105.6 146.9" style="enable-background:new 0 0 105.6 146.9;" xml:space="preserve">
<style type="text/css">
	.st0{fill:none;stroke:#221714;stroke-miterlimit:10;}
	.st1{fill:#5CB292;}
	.st2{fill:#7DC1A8;}
	.st3{fill:#97CDB9;}
	.st4{fill:none;}
</style>
<line class="st0" x1="240.6" y1="276" x2="240.6" y2="275"/>
<polygon class="st1" points="15,16.8 15,59.6 0,59.6 0,0 "/>
<path class="st1" d="M15,77.2v68.4c0-0.7-3.3-1.3-7.5-1.3c-4.1,0-7.5,0.6-7.5,1.3v-86L15,77.2z"/>
<polygon class="st2" points="105.6,77.2 15,77.2 0,59.6 86.8,59.6 "/>
<polygon class="st2" points="105.6,0 87.3,16.8 15,16.8 0,0 "/>
<polygon class="st3" points="105.6,59.6 105.6,77.2 86.8,59.6 74.7,48.3 63.9,38.2 74.8,28.2 84.8,38.2 "/>
<polygon class="st3" points="105.6,0 105.6,16.8 84.8,38.2 74.8,28.2 87.3,16.8 "/>
<path class="st1" d="M15,145.6c0,0.7-3.3,1.3-7.5,1.3c-4.1,0-7.5-0.6-7.5-1.3c0-0.7,3.3-1.3,7.5-1.3C11.6,144.3,15,144.9,15,145.6z"
	/>
<line class="st4" x1="187" y1="22.8" x2="186.5" y2="22.8"/>
<line class="st4" x1="74.8" y1="28.2" x2="74.8" y2="28.2"/>
<line class="st4" x1="74.7" y1="48.3" x2="74.7" y2="48.3"/>
</svg>
